# /home/anton/Projects/ww-ros/wubble_world/wubble_robots/meshes/convex/erratic_top_final.obj created by IVCON.
# Original data in /home/anton/Projects/ww-ros/wubble_world/wubble_robots/meshes/erratic_top_final.stl.

g IVCON

v 0.100000 -0.197000 -0.012000
v -0.100000 -0.197000 -0.012000
v -0.100000 -0.200000 -0.012000
v 0.100000 -0.200000 -0.012000
v 0.100000 -0.197000 0.000000
v 0.100000 -0.200000 0.000000
v -0.100000 -0.200000 0.000000
v -0.100000 -0.197000 0.000000
v 0.185398 -0.124722 -0.012000
v 0.185398 -0.124722 0.000000
v 0.185398 -0.127722 0.000000
v 0.185398 -0.127722 -0.012000
v 0.184980 0.127521 -0.012000
v 0.184980 0.127521 0.000000
v 0.184979 0.124866 0.000000
v 0.184980 0.124866 -0.012000
v 0.115901 0.198413 -0.012000
v 0.115901 0.200045 -0.012000
v 0.115902 0.200045 0.000000
v 0.115901 0.198413 0.000000
v -0.114439 0.200045 -0.012000
v -0.114439 0.200045 0.000000
v -0.114439 0.198413 0.000000
v -0.114439 0.198413 -0.012000
v -0.184480 0.127514 -0.012000
v -0.184480 0.130169 -0.012000
v -0.184480 0.130169 0.000000
v -0.184480 0.127514 0.000000
v -0.184480 -0.124722 -0.012000
v -0.184480 -0.124722 0.000000
v -0.184480 -0.127722 0.000000
v -0.184480 -0.127722 -0.012000
v -0.099757 -0.199929 -0.012000
v -0.099757 -0.196929 -0.012000
v -0.099757 -0.196929 0.000000
v -0.099757 -0.199929 0.000000
v 0.115000 0.200000 0.000000
v 0.185000 0.000000 0.000000
v 0.185000 -0.127500 0.000000
v -0.000000 0.200000 0.000000
v 0.000000 -0.200000 0.000000
v -0.115000 0.200000 0.000000
v -0.185000 0.127500 0.000000
v -0.185000 -0.127500 0.000000
v -0.185000 -0.000000 0.000000
v -0.115000 0.200000 0.003000
v -0.000000 0.200000 0.003000
v 0.000000 -0.200000 0.003000
v -0.100000 -0.200000 0.003000
v -0.185000 0.127500 0.003000
v 0.115000 0.200000 0.003000
v 0.100000 -0.200000 0.003000
v 0.185000 0.127500 0.003000
v 0.185000 0.000000 0.003000
v 0.185000 -0.127500 0.003000
v -0.185000 -0.127500 0.003000
v -0.185000 -0.000000 0.003000

vn 0.000000 0.000000 1.000000
vn 0.000000 0.000000 1.000000
vn 0.000000 0.000000 1.000000
vn 0.000000 0.000000 1.000000
vn 0.000000 0.000000 1.000000
vn 0.000000 -0.000000 1.000000
vn 0.000000 0.000000 -1.000000
vn 0.000000 0.000000 -1.000000
vn 0.000000 0.000000 -1.000000
vn -0.000000 0.000000 -1.000000
vn 0.000000 0.000000 -1.000000
vn 0.000000 -0.000000 -1.000000
vn 0.000000 1.000000 0.000000
vn 0.000000 1.000000 -0.000000
vn 0.000000 1.000000 0.000000
vn 0.000000 1.000000 0.000000
vn -0.000000 1.000000 0.000000
vn 0.000000 1.000000 0.000000
vn 1.000000 -0.000015 0.000002
vn 1.000000 -0.000015 0.000002
vn 1.000000 -0.000015 0.000002
vn 1.000000 -0.000015 0.000002
vn 1.000000 -0.000015 0.000002
vn 1.000000 -0.000015 0.000002
vn -0.000000 -1.000000 0.000000
vn -0.000000 -1.000000 0.000000
vn -0.000000 -1.000000 0.000000
vn -0.000000 -1.000000 -0.000000
vn -0.000000 -1.000000 -0.000000
vn -0.000000 -1.000000 -0.000000
vn 0.646037 -0.763306 -0.000002
vn 0.646037 -0.763306 -0.000002
vn 0.646037 -0.763306 -0.000002
vn 0.646037 -0.763306 -0.000002
vn 0.646037 -0.763306 -0.000002
vn 0.646037 -0.763306 -0.000002
vn -0.646037 0.763306 -0.000003
vn -0.646037 0.763306 -0.000003
vn -0.646037 0.763306 -0.000003
vn -0.646037 0.763306 -0.000003
vn -0.646037 0.763306 -0.000003
vn -0.646037 0.763306 -0.000003
vn 0.000000 0.000000 -1.000000
vn 0.000000 0.000000 -1.000000
vn -0.000000 0.000000 -1.000000
vn 0.000000 -0.000000 -1.000000
vn 0.000000 0.000000 -1.000000
vn 0.000000 0.000000 -1.000000
vn 0.000000 0.000000 1.000000
vn -0.000000 0.000000 1.000000
vn 0.000000 0.000000 1.000000
vn 0.000000 0.000000 1.000000
vn 0.000000 0.000000 1.000000
vn 0.000000 -0.000000 1.000000
vn 0.999999 0.001659 -0.000005
vn 0.999999 0.001659 -0.000005
vn 0.999999 0.001659 -0.000005
vn 0.999999 0.001659 -0.000004
vn 0.999999 0.001659 -0.000004
vn 0.999999 0.001659 -0.000004
vn -0.999999 -0.001657 -0.000005
vn -0.999999 -0.001657 -0.000005
vn -0.999999 -0.001657 -0.000005
vn -0.999999 -0.001657 -0.000005
vn -0.999999 -0.001657 -0.000005
vn -0.999999 -0.001657 -0.000005
vn -0.000000 0.000000 -1.000000
vn -0.000000 0.000000 -1.000000
vn -0.000000 -0.000000 -1.000000
vn -0.000000 0.000000 -1.000000
vn -0.000000 0.000000 -1.000000
vn -0.000000 -0.000000 -1.000000
vn 0.000000 -0.000000 1.000000
vn 0.000000 -0.000000 1.000000
vn 0.000000 -0.000000 1.000000
vn 0.000000 -0.000000 1.000000
vn 0.000000 -0.000000 1.000000
vn 0.000000 -0.000000 1.000000
vn -0.728906 -0.684614 -0.000003
vn -0.728906 -0.684614 -0.000003
vn -0.728906 -0.684614 -0.000003
vn -0.728906 -0.684614 -0.000004
vn -0.728906 -0.684614 -0.000003
vn -0.728906 -0.684614 -0.000004
vn 0.724098 0.689697 -0.000003
vn 0.724098 0.689697 -0.000003
vn 0.724098 0.689697 -0.000003
vn 0.724098 0.689697 -0.000004
vn 0.724098 0.689697 -0.000004
vn 0.724098 0.689697 -0.000004
vn 0.000000 1.000000 0.000000
vn 0.000000 1.000000 0.000000
vn 0.000000 1.000000 0.000000
vn 0.000000 1.000000 -0.000000
vn -0.000000 1.000000 0.000000
vn 0.000000 1.000000 0.000000
vn 0.000000 -1.000000 0.000000
vn 0.000000 -1.000000 0.000000
vn 0.000000 -1.000000 0.000000
vn 0.000000 -1.000000 0.000000
vn 0.000000 -1.000000 0.000000
vn 0.000000 -1.000000 0.000000
vn 0.000000 0.000000 1.000000
vn -0.000000 0.000000 1.000000
vn 0.000000 0.000000 1.000000
vn 0.000000 0.000000 1.000000
vn 0.000000 0.000000 1.000000
vn 0.000000 -0.000000 1.000000
vn -0.000000 0.000000 -1.000000
vn 0.000000 0.000000 -1.000000
vn 0.000000 0.000000 -1.000000
vn 0.000000 0.000000 -1.000000
vn 0.000000 0.000000 -1.000000
vn -0.000000 -0.000000 -1.000000
vn 0.000000 0.000000 -1.000000
vn 0.000000 0.000000 -1.000000
vn 0.000000 0.000000 -1.000000
vn -0.000000 0.000000 -1.000000
vn 0.000000 0.000000 -1.000000
vn 0.000000 -0.000000 -1.000000
vn 0.000000 0.000000 1.000000
vn -0.000000 0.000000 1.000000
vn 0.000000 0.000000 1.000000
vn 0.000000 0.000000 1.000000
vn 0.000000 0.000000 1.000000
vn 0.000000 -0.000000 1.000000
vn 0.711402 -0.702786 0.000004
vn 0.711402 -0.702786 0.000004
vn 0.711402 -0.702786 0.000004
vn 0.711402 -0.702786 0.000003
vn 0.711402 -0.702786 0.000002
vn 0.711402 -0.702786 0.000003
vn -0.706273 0.707940 0.000003
vn -0.706273 0.707940 0.000003
vn -0.706273 0.707940 0.000003
vn -0.706273 0.707940 0.000003
vn -0.706273 0.707940 0.000003
vn -0.706273 0.707940 0.000003
vn -1.000000 0.000000 0.000004
vn -1.000000 0.000000 0.000004
vn -1.000000 0.000000 0.000004
vn -1.000000 0.000000 0.000004
vn -1.000000 0.000000 0.000004
vn -1.000000 0.000000 0.000004
vn 1.000000 0.000000 0.000004
vn 1.000000 0.000000 0.000004
vn 1.000000 0.000000 0.000004
vn 1.000000 0.000000 0.000005
vn 1.000000 -0.000000 0.000005
vn 1.000000 0.000000 0.000005
vn 0.000000 0.000000 1.000000
vn 0.000000 -0.000000 1.000000
vn 0.000000 0.000000 1.000000
vn -0.000000 0.000000 1.000000
vn 0.000000 0.000000 1.000000
vn 0.000000 0.000000 1.000000
vn 0.000000 0.000000 -1.000000
vn -0.000000 0.000000 -1.000000
vn 0.000000 0.000000 -1.000000
vn 0.000000 -0.000000 -1.000000
vn 0.000000 0.000000 -1.000000
vn 0.000000 0.000000 -1.000000
vn 0.648652 0.761085 0.000002
vn 0.648652 0.761085 0.000002
vn 0.648652 0.761085 0.000002
vn 0.648652 0.761085 0.000002
vn 0.648652 0.761085 0.000002
vn 0.648652 0.761085 0.000002
vn -0.648652 -0.761085 0.000002
vn -0.648652 -0.761085 0.000002
vn -0.648652 -0.761085 0.000002
vn -0.648652 -0.761085 0.000002
vn -0.648652 -0.761085 0.000002
vn -0.648652 -0.761085 0.000002
vn -1.000000 -0.000000 -0.000004
vn -1.000000 0.000000 -0.000004
vn -1.000000 0.000000 -0.000004
vn -1.000000 0.000030 0.000004
vn -1.000000 0.000030 0.000004
vn -1.000000 0.000030 0.000004
vn 0.000000 0.000000 1.000000
vn 0.000000 0.000000 1.000000
vn 0.000000 0.000000 1.000000
vn 0.000000 0.000000 1.000000
vn 0.000000 0.000000 1.000000
vn 0.000000 0.000000 1.000000
vn 0.000000 0.000000 1.000000
vn 0.000000 0.000000 1.000000
vn 0.000000 0.000000 1.000000
vn -0.000000 0.000000 1.000000
vn 0.000000 -0.000000 1.000000
vn 0.000000 0.000000 1.000000
vn 0.000000 0.000000 1.000000
vn -0.000000 -0.000000 1.000000
vn 0.000000 0.000000 1.000000
vn -0.000000 0.000000 1.000000
vn 0.000000 0.000000 1.000000
vn 0.000000 0.000000 1.000000
vn 0.000000 0.000000 1.000000
vn 0.000000 -0.000000 1.000000
vn 0.000000 0.000000 1.000000
vn 0.000000 0.000000 1.000000
vn 0.000000 0.000000 1.000000
vn -0.000000 0.000000 1.000000
vn 0.000000 0.000000 1.000000
vn -0.000000 -0.000000 1.000000
vn 0.000000 0.000000 1.000000
vn -0.000000 1.000000 0.000000
vn -0.000000 1.000000 0.000000
vn -0.000000 1.000000 0.000000
vn -0.000000 1.000000 0.000000
vn -0.000000 1.000000 0.000000
vn -0.000000 1.000000 0.000000
vn -0.961069 -0.276307 0.000000
vn -0.961069 -0.276307 0.000000
vn -0.961069 -0.276307 -0.000000
vn -0.961069 -0.276307 0.000000
vn -0.961069 -0.276307 0.000000
vn -0.961069 -0.276307 -0.000000
vn 0.999298 0.037474 -0.000000
vn 0.999298 0.037474 0.000000
vn 0.999298 0.037474 0.000000
vn 0.999298 0.037474 -0.000003
vn 0.999298 0.037474 -0.000002
vn 0.999298 0.037474 -0.000002
vn -0.719401 0.694595 0.000000
vn -0.719401 0.694595 0.000000
vn -0.719401 0.694595 0.000000
vn -0.719401 0.694595 0.000000
vn -0.719401 0.694595 0.000000
vn -0.719401 0.694595 0.000000
vn -0.000000 1.000000 0.000000
vn -0.000000 1.000000 0.000000
vn -0.000000 1.000000 0.000000
vn -0.000000 1.000000 0.000000
vn -0.000000 1.000000 0.000000
vn -0.000000 1.000000 0.000000
vn -0.970143 -0.242535 0.000030
vn -0.970143 -0.242535 0.000029
vn -0.970143 -0.242535 0.000029
vn -0.970142 -0.242536 0.000000
vn -0.970142 -0.242536 0.000000
vn -0.970142 -0.242536 -0.000000
vn 1.000000 0.000000 -0.000000
vn 1.000000 0.000000 0.000000
vn 1.000000 0.000000 0.000000
vn 1.000000 0.000000 0.000000
vn 1.000000 0.000000 0.000000
vn 1.000000 0.000000 -0.000000
vn 0.719402 0.694594 -0.000000
vn 0.719402 0.694594 0.000000
vn 0.719402 0.694594 0.000000
vn 0.719401 0.694595 0.000029
vn 0.719401 0.694595 0.000028
vn 0.719401 0.694595 0.000028
vn -0.943858 -0.330350 0.000000
vn -0.943858 -0.330350 0.000000
vn -0.943858 -0.330350 -0.000000
vn -0.943858 -0.330350 0.000000
vn -0.943858 -0.330350 0.000000
vn -0.943858 -0.330350 -0.000000
vn 0.977912 0.209019 -0.000000
vn 0.977912 0.209019 0.000000
vn 0.977912 0.209019 0.000000
vn 0.977912 0.209019 0.000000
vn 0.977912 0.209019 0.000000
vn 0.977912 0.209019 -0.000000
vn -0.999298 0.037474 0.000027
vn -0.999298 0.037474 0.000027
vn -0.999298 0.037474 0.000027
vn -0.999298 0.037474 0.000000
vn -0.999298 0.037474 0.000000
vn -0.999298 0.037474 0.000000
vn 0.999977 0.000000 -0.006790
vn 0.999977 0.000000 -0.006790
vn 0.999977 0.000000 -0.006790
vn 1.000000 0.000160 0.000000
vn 1.000000 0.000160 0.000000
vn 1.000000 0.000160 -0.000000
vn 1.000000 0.000000 -0.000000
vn 1.000000 0.000000 0.000000
vn 1.000000 0.000000 0.000000
vn 1.000000 0.000000 0.000000
vn 1.000000 0.000000 0.000000
vn 1.000000 0.000000 -0.000000
vn 0.648947 -0.760834 0.000000
vn 0.648947 -0.760834 0.000000
vn 0.648947 -0.760834 0.000000
vn 0.648946 -0.760834 -0.000010
vn 0.648946 -0.760834 -0.000010
vn 0.648946 -0.760834 -0.000010
vn 0.000000 -1.000000 0.000010
vn 0.000000 -1.000000 0.000010
vn 0.000000 -1.000000 0.000010
vn -0.000000 -1.000000 0.000000
vn -0.000000 -1.000000 -0.000000
vn -0.000000 -1.000000 0.000000
vn 0.000000 -1.000000 0.000000
vn 0.000000 -1.000000 0.000000
vn 0.000000 -1.000000 0.000000
vn 0.000000 -1.000000 -0.000000
vn 0.000000 -1.000000 -0.000000
vn 0.000000 -1.000000 -0.000000
vn -0.648947 -0.760834 0.000002
vn -0.648947 -0.760834 0.000002
vn -0.648947 -0.760834 0.000003
vn -0.648947 -0.760834 0.000000
vn -0.648947 -0.760834 -0.000000
vn -0.648947 -0.760834 0.000000
vn -0.967930 -0.251219 0.000002
vn -0.967930 -0.251219 0.000002
vn -0.967930 -0.251219 0.000002
vn -0.967930 -0.251219 0.000000
vn -0.967930 -0.251219 0.000000
vn -0.967930 -0.251219 -0.000000
vn -1.000000 -0.000000 0.000000
vn -1.000000 -0.000000 -0.000000
vn -1.000000 -0.000000 0.000000
vn -1.000000 -0.000000 0.000000
vn -1.000000 -0.000000 -0.000000
vn -1.000000 -0.000000 0.000000
vn 1.000000 0.000000 -0.000000
vn 1.000000 0.000000 0.000000
vn 1.000000 0.000000 0.000000
vn 1.000000 0.000000 0.000000
vn 1.000000 0.000000 0.000000
vn 1.000000 0.000000 -0.000000
vn -1.000000 -0.000000 0.000000
vn -1.000000 -0.000000 -0.000000
vn -1.000000 -0.000000 0.000000
vn -1.000000 -0.000000 0.000000
vn -1.000000 -0.000000 -0.000000
vn -1.000000 -0.000000 0.000000

f 1//1 2//2 3//3
f 1//4 3//5 4//6
f 5//7 6//8 7//9
f 5//10 7//11 8//12
f 4//13 3//14 7//15
f 4//16 7//17 6//18
f 3//19 2//20 8//21
f 3//22 8//23 7//24
f 2//25 1//26 5//27
f 2//28 5//29 8//30
f 1//31 9//32 10//33
f 1//34 10//35 5//36
f 6//37 11//38 12//39
f 6//40 12//41 4//42
f 5//43 10//44 11//45
f 5//46 11//47 6//48
f 9//49 1//50 4//51
f 9//52 4//53 12//54
f 9//55 13//56 14//57
f 9//58 14//59 10//60
f 11//61 15//62 16//63
f 11//64 16//65 12//66
f 16//67 17//68 18//69
f 16//70 18//71 13//72
f 14//73 19//74 20//75
f 14//76 20//77 15//78
f 15//79 20//80 17//81
f 15//82 17//83 16//84
f 13//85 18//86 19//87
f 13//88 19//89 14//90
f 18//91 21//92 22//93
f 18//94 22//95 19//96
f 20//97 23//98 24//99
f 20//100 24//101 17//102
f 19//103 22//104 23//105
f 19//106 23//107 20//108
f 17//109 24//110 21//111
f 17//112 21//113 18//114
f 24//115 25//116 26//117
f 24//118 26//119 21//120
f 22//121 27//122 28//123
f 22//124 28//125 23//126
f 23//127 28//128 25//129
f 23//130 25//131 24//132
f 21//133 26//134 27//135
f 21//136 27//137 22//138
f 26//139 29//140 30//141
f 26//142 30//143 27//144
f 28//145 31//146 32//147
f 28//148 32//149 25//150
f 32//151 33//152 34//153
f 32//154 34//155 29//156
f 30//157 35//158 36//159
f 30//160 36//161 31//162
f 31//163 36//164 33//165
f 31//166 33//167 32//168
f 29//169 34//170 35//171
f 29//172 35//173 30//174
f 34//175 33//176 36//177
f 34//178 36//179 35//180
f 37//181 38//182 14//183
f 37//184 39//185 38//186
f 37//187 6//188 39//189
f 40//190 6//191 37//192
f 40//193 41//194 6//195
f 42//196 41//197 40//198
f 42//199 7//200 41//201
f 7//202 42//203 43//204
f 43//205 44//206 7//207
f 42//208 46//209 47//210
f 42//211 47//212 40//213
f 42//214 41//215 48//216
f 42//217 48//218 46//219
f 42//220 46//221 49//222
f 42//223 49//224 7//225
f 43//226 50//227 46//228
f 43//229 46//230 42//231
f 40//232 47//233 51//234
f 40//235 51//236 37//237
f 40//238 6//239 52//240
f 40//241 52//242 47//243
f 40//244 47//245 48//246
f 40//247 48//248 41//249
f 37//250 51//251 53//252
f 37//253 53//254 14//255
f 37//256 38//257 54//258
f 37//259 54//260 51//261
f 37//262 51//263 55//264
f 37//265 55//266 39//267
f 37//268 6//269 52//270
f 37//271 52//272 51//273
f 14//274 53//275 54//276
f 14//277 54//278 38//279
f 38//280 54//281 55//282
f 38//283 55//284 39//285
f 39//286 55//287 52//288
f 39//289 52//290 6//291
f 6//292 52//293 48//294
f 6//295 48//296 41//297
f 41//298 48//299 49//300
f 41//301 49//302 7//303
f 7//304 49//305 56//306
f 7//307 56//308 44//309
f 43//310 7//311 49//312
f 43//313 49//314 50//315
f 44//316 56//317 57//318
f 44//319 57//320 45//321
f 43//322 50//323 56//324
f 43//325 56//326 44//327
f 45//328 57//329 50//330
f 45//331 50//332 43//333

